HIERARCHY
ROOT Hips
{
  OFFSET 0 0.240689 0
  CHANNELS 6 Xposition Yposition Zposition Zrotation Xrotation Yrotation
  JOINT Bip01_Spine0
  {
    OFFSET 0 -24.7459 49.7988
    CHANNELS 6 Xposition Yposition Zposition Zrotation Xrotation Yrotation
    JOINT Bip01_Pelvis
    {
      OFFSET 0 0 0
      CHANNELS 6 Xposition Yposition Zposition Zrotation Xrotation Yrotation
      JOINT Bip01_Spine0_Tail
      {
        OFFSET -6.47486 -3.86022 0
        CHANNELS 6 Xposition Yposition Zposition Zrotation Xrotation Yrotation
        JOINT Bip01_Spine0_Tail1
        {
          OFFSET 10.3837 -0.00825882 0
          CHANNELS 6 Xposition Yposition Zposition Zrotation Xrotation Yrotation
          JOINT Bip01_Spine0_Tail2
          {
            OFFSET 10.3837 -0.00826263 0
            CHANNELS 6 Xposition Yposition Zposition Zrotation Xrotation Yrotation
            JOINT Bip01_Spine0_Tail3
            {
              OFFSET 10.3837 -0.00825882 0
              CHANNELS 6 Xposition Yposition Zposition Zrotation Xrotation Yrotation
              JOINT Bip01_Spine0_Tail4
              {
                OFFSET 10.3837 -0.00826263 0
                CHANNELS 6 Xposition Yposition Zposition Zrotation Xrotation Yrotation
                End Site
                {
                  OFFSET 0 0 0
                }
              }
            }
          }
        }
      }
      JOINT Bip01_R_Thigh
      {
        OFFSET 0 -1.52588e-005 -8.75617
        CHANNELS 6 Xposition Yposition Zposition Zrotation Xrotation Yrotation
        JOINT Bip01_R_Calf
        {
          OFFSET 19.7638 0 0
          CHANNELS 6 Xposition Yposition Zposition Zrotation Xrotation Yrotation
          JOINT Bip01_R_Foot
          {
            OFFSET 18.6534 0 0
            CHANNELS 6 Xposition Yposition Zposition Zrotation Xrotation Yrotation
            JOINT Bip01_R_Toe0
            {
              OFFSET 5.09145 13.9567 0
              CHANNELS 6 Xposition Yposition Zposition Zrotation Xrotation Yrotation
              JOINT Bip01_R_Toe01
              {
                OFFSET 4.28803 0 0
                CHANNELS 6 Xposition Yposition Zposition Zrotation Xrotation Yrotation
                JOINT Bip01_R_Toe02
                {
                  OFFSET 3.85801 0 0
                  CHANNELS 6 Xposition Yposition Zposition Zrotation Xrotation Yrotation
                  End Site
                  {
                    OFFSET 0 0 0
                  }
                }
              }
            }
          }
        }
      }
      JOINT Bip01_L_Thigh
      {
        OFFSET 0 1.52588e-005 8.75617
        CHANNELS 6 Xposition Yposition Zposition Zrotation Xrotation Yrotation
        JOINT Bip01_L_Calf
        {
          OFFSET 19.7638 0 0
          CHANNELS 6 Xposition Yposition Zposition Zrotation Xrotation Yrotation
          JOINT Bip01_L_Foot
          {
            OFFSET 18.6534 0 0
            CHANNELS 6 Xposition Yposition Zposition Zrotation Xrotation Yrotation
            JOINT Bip01_L_Toe0
            {
              OFFSET 5.09144 13.9567 0
              CHANNELS 6 Xposition Yposition Zposition Zrotation Xrotation Yrotation
              JOINT Bip01_L_Toe01
              {
                OFFSET 4.28802 0 0
                CHANNELS 6 Xposition Yposition Zposition Zrotation Xrotation Yrotation
                JOINT Bip01_L_Toe02
                {
                  OFFSET 3.85801 0 0
                  CHANNELS 6 Xposition Yposition Zposition Zrotation Xrotation Yrotation
                  End Site
                  {
                    OFFSET 0 0 0
                  }
                }
              }
            }
          }
        }
      }
      JOINT Bip01_Spine
      {
        OFFSET 9.14835 -0.00640869 -1.1e-005
        CHANNELS 6 Xposition Yposition Zposition Zrotation Xrotation Yrotation
        JOINT Bip01_Spine1
        {
          OFFSET 8.04366 -0.00638199 0
          CHANNELS 6 Xposition Yposition Zposition Zrotation Xrotation Yrotation
          JOINT Bip01_Spine2
          {
            OFFSET 8.04367 -0.00639343 0
            CHANNELS 6 Xposition Yposition Zposition Zrotation Xrotation Yrotation
            JOINT Bip01_Spine3
            {
              OFFSET 8.04304 -0.00831222 0
              CHANNELS 6 Xposition Yposition Zposition Zrotation Xrotation Yrotation
              JOINT Bip01_Neck
              {
                OFFSET 10.6685 1.06813 0
                CHANNELS 6 Xposition Yposition Zposition Zrotation Xrotation Yrotation
                JOINT Bip01_R_Clavicle
                {
                  OFFSET -3.21661 -4.89635 -9.04802
                  CHANNELS 6 Xposition Yposition Zposition Zrotation Xrotation Yrotation
                  JOINT Bip01_R_UpperArm
                  {
                    OFFSET 19.0492 0 0
                    CHANNELS 6 Xposition Yposition Zposition Zrotation Xrotation Yrotation
                    JOINT Bip01_R_Forearm
                    {
                      OFFSET 10.3706 0 0
                      CHANNELS 6 Xposition Yposition Zposition Zrotation Xrotation Yrotation
                      JOINT Bip01_R_Hand
                      {
                        OFFSET 22.8632 0 0
                        CHANNELS 6 Xposition Yposition Zposition Zrotation Xrotation Yrotation
                        JOINT Bip01_R_Finger0
                        {
                          OFFSET 6.48259 0.103651 0.504496
                          CHANNELS 6 Xposition Yposition Zposition Zrotation Xrotation Yrotation
                          JOINT Bip01_R_Finger01
                          {
                            OFFSET 3.66847 0 0
                            CHANNELS 6 Xposition Yposition Zposition Zrotation Xrotation Yrotation
                            End Site
                            {
                              OFFSET 0 0 0
                            }
                          }
                        }
                      }
                    }
                  }
                }
                JOINT Bip01_L_Clavicle
                {
                  OFFSET -3.21661 -4.89641 9.04797
                  CHANNELS 6 Xposition Yposition Zposition Zrotation Xrotation Yrotation
                  JOINT Bip01_L_UpperArm
                  {
                    OFFSET 19.0492 0 0
                    CHANNELS 6 Xposition Yposition Zposition Zrotation Xrotation Yrotation
                    JOINT Bip01_L_Forearm
                    {
                      OFFSET 10.3706 0 0
                      CHANNELS 6 Xposition Yposition Zposition Zrotation Xrotation Yrotation
                      JOINT Bip01_L_Hand
                      {
                        OFFSET 22.8631 0 0
                        CHANNELS 6 Xposition Yposition Zposition Zrotation Xrotation Yrotation
                        JOINT Bip01_L_Finger0
                        {
                          OFFSET 6.48257 0.103655 -0.504492
                          CHANNELS 6 Xposition Yposition Zposition Zrotation Xrotation Yrotation
                          JOINT Bip01_L_Finger01
                          {
                            OFFSET 3.66844 0 0
                            CHANNELS 6 Xposition Yposition Zposition Zrotation Xrotation Yrotation
                            End Site
                            {
                              OFFSET 0 0 0
                            }
                          }
                        }
                      }
                    }
                  }
                }
                JOINT Bip01_Neck1
                {
                  OFFSET 7.52459 -0.00656509 0
                  CHANNELS 6 Xposition Yposition Zposition Zrotation Xrotation Yrotation
                  JOINT Bip01_Neck2
                  {
                    OFFSET 8.4783 -0.00588226 0
                    CHANNELS 6 Xposition Yposition Zposition Zrotation Xrotation Yrotation
                    JOINT Bip01_Head
                    {
                      OFFSET 8.41606 0 0
                      CHANNELS 6 Xposition Yposition Zposition Zrotation Xrotation Yrotation
                      JOINT EyesBlue
                      {
                        OFFSET 0 0 0
                        CHANNELS 6 Xposition Yposition Zposition Zrotation Xrotation Yrotation
                        JOINT EyesBlue_2
                        {
                          OFFSET 0 -0.500007 0
                          CHANNELS 6 Xposition Yposition Zposition Zrotation Xrotation Yrotation
                          End Site
                          {
                            OFFSET 0 0 0
                          }
                        }
                      }
                      JOINT Bip01_Head2_Eyeleds
                      {
                        OFFSET 6.52751 7.61746 2.2e-005
                        CHANNELS 6 Xposition Yposition Zposition Zrotation Xrotation Yrotation
                        End Site
                        {
                          OFFSET 0 0 0
                        }
                      }
                      JOINT Bip01_Head_Muzzle
                      {
                        OFFSET 2.88628 13.9448 3.88994
                        CHANNELS 6 Xposition Yposition Zposition Zrotation Xrotation Yrotation
                        End Site
                        {
                          OFFSET 0 0 0
                        }
                      }
                      JOINT Bip01_Head1_Jaw
                      {
                        OFFSET 0.271065 1.32405 0
                        CHANNELS 6 Xposition Yposition Zposition Zrotation Xrotation Yrotation
                        JOINT _Bip01_Head11_TungeControler
                        {
                          OFFSET 4.61616 5.82872 0
                          CHANNELS 6 Xposition Yposition Zposition Zrotation Xrotation Yrotation
                          JOINT _Bip01_Ponytail3_tunge
                          {
                            OFFSET 5.17785 2.98805 0
                            CHANNELS 6 Xposition Yposition Zposition Zrotation Xrotation Yrotation
                            JOINT Bip01_Ponytail31
                            {
                              OFFSET 5.57569 0 0
                              CHANNELS 6 Xposition Yposition Zposition Zrotation Xrotation Yrotation
                              JOINT Bip01_Ponytail32
                              {
                                OFFSET 2.93165 0 0
                                CHANNELS 6 Xposition Yposition Zposition Zrotation Xrotation Yrotation
                                JOINT Bip01_Ponytail3Nub
                                {
                                  OFFSET 3.30155 0 0
                                  CHANNELS 6 Xposition Yposition Zposition Zrotation Xrotation Yrotation
                                  End Site
                                  {
                                    OFFSET 0 0 0
                                  }
                                }
                              }
                            }
                          }
                        }
                        JOINT Bip01_Head_JawNub
                        {
                          OFFSET 15.5776 -0.000389099 0
                          CHANNELS 6 Xposition Yposition Zposition Zrotation Xrotation Yrotation
                          End Site
                          {
                            OFFSET 0 0 0
                          }
                        }
                      }
                      JOINT Bip01_Ponytail2
                      {
                        OFFSET 9.40334 1.03973 -6.51764
                        CHANNELS 6 Xposition Yposition Zposition Zrotation Xrotation Yrotation
                        JOINT Bip01_Ponytail21
                        {
                          OFFSET 2.77018 -0.00640106 1.33514e-005
                          CHANNELS 6 Xposition Yposition Zposition Zrotation Xrotation Yrotation
                          End Site
                          {
                            OFFSET 0 0 0
                          }
                        }
                      }
                      JOINT Bip01_Ponytail1
                      {
                        OFFSET 9.40368 1.03969 6.51768
                        CHANNELS 6 Xposition Yposition Zposition Zrotation Xrotation Yrotation
                        JOINT Bip01_Ponytail11
                        {
                          OFFSET 2.77018 -0.00640487 0
                          CHANNELS 6 Xposition Yposition Zposition Zrotation Xrotation Yrotation
                          End Site
                          {
                            OFFSET 0 0 0
                          }
                        }
                      }
                    }
                  }
                }
              }
            }
          }
        }
      }
    }
  }
}
MOTION
Frames:	4
Frame Time:	0.0333333
0 0 -1e-006 -0 -90 -0 -0.262125 -24.7458 50.4635 90 -3.50835e-015 90 0 0 0 -90 -3.50835e-015 -90 -6.46539 -3.85818 0.440696 -179.37 -0.0429554 -3.89902 10.3859 -0.007869 2.95571e-010 17.68 -7.98042e-006 -4.43563e-005 10.3894 -0.005504 5e-005 47.9411 0.000420288 0.00016085 10.3905 -0.003973 0.000149 60.5721 0.000796682 0.000208262 10.3902 -0.004386 4.7e-005 57.0248 0.00194332 0.000574384 9.38275e-006 -1.5e-005 -8.75617 -97.489 -11.9751 173.961 19.7638 5.32907e-015 -1e-006 -60.8867 0.000428111 0.00165862 18.6534 3e-006 7.81597e-014 -27.4931 1.40039 7.55387 5.09143 13.9567 4.26043e-006 114.819 3.10082 1.66804 4.288 -1e-006 1e-006 53.6716 8.4327 1.28952 3.85799 2.17604e-014 -1e-006 -45 -6.96436e-006 7.75382e-006 -1.53827e-005 7e-006 8.75617 -110.947 -4.43256 -179.209 19.7638 3e-006 -2.84217e-014 -63.6034 0.000336235 0.00143435 18.6534 3e-006 -1.59872e-014 -25.4992 1.14748 -5.71944 5.09143 13.9567 -9.33802e-007 115 0.00070386 4.99933 4.288 -1e-006 4.44089e-014 51.474 -6.03006 0.263551 3.85799 1.44684e-012 -2e-006 -45 2.18608e-005 1.63628e-005 9.12711 -0.00637843 -0.622026 0.0464319 0.00386675 3.954 8.04359 -0.006286 0.0001 0.000454014 0.000445008 0.054235 8.04366 -0.006282 0.000103 1.55348e-005 0.00182199 0.055605 8.04298 -0.008216 1.5e-005 -4.29754 0.000166915 0.055697 10.6686 1.06826 0.000159744 -12.3571 0.00038632 0.000487057 -3.29513 -4.84398 -9.04791 -167.68 -85.4162 115.007 19.0492 -1.59872e-014 -3e-006 89.7464 8.4164 -103.466 10.3706 -1.97176e-013 1e-006 -58.5393 0.000462698 0.00163627 22.8631 -1e-006 -9.76997e-015 -16.6208 -0.172453 2.45095 6.48256 0.103655 0.504496 -78.3102 -0.3 -15.4938 3.66843 1e-006 1e-006 34.6071 3.07919e-005 -2.18998e-006 -3.29495 -4.84379 9.04784 -167.687 85.4168 -115 19.0492 1.59872e-014 3e-006 88.6325 -8.31504 99.4931 10.3706 0 1.77636e-015 -58.5387 0.000131881 0.000472973 22.8631 -3e-006 4.44089e-015 -16.4579 -8.55807 -2.45344 6.48256 0.103653 -0.504496 -75.9415 0.955237 15.4679 3.66843 1e-006 -2e-006 40.107 1.883e-005 -1.13654e-005 7.52401 -0.006366 7.00007e-005 -17.535 0.000578371 0.000792267 8.47532 -0.006572 2.40002e-005 2.57172 0.000949358 0.000907083 8.41604 2.4869e-014 4.44089e-016 -66.5693 0.215377 0.0281451 -7e-006 7e-006 -4e-006 -23.1098 1.37701e-015 90 -2.31276e-007 -0.500004 1.1578e-007 -35.3314 90 125.331 0 0 0 -113.549 1.52588e-005 -180 2.8863 13.9448 3.88993 -22.9892 1.37022e-015 90 0 0 0 -85.3358 -1.52588e-005 -180 0 0 0 -120.289 7.24524e-006 -3.1519e-005 0 0 0 133.74 -1.39107e-005 5.05521e-006 0 0 0 -0.16845 6.0469e-008 -1.52902e-008 0 0 0 -22.6319 -1.70035e-005 -2.02455e-006 0 0 0 -26.1943 8.96448e-006 5.36209e-006 15.5776 -0.000396 -6.99991e-006 0 0 -7.95139e-016 9.40327 1.03976 -6.5174 -19.0853 17.2477 20.3015 2.77015 -0.006393 4.99919e-006 2.43523 0.0017335 0.00166069 9.40361 1.03978 6.5176 -19.0853 -17.2442 -20.3 2.77019 -0.006393 8.00063e-006 2.43572 0.000800594 0.000768238 
0 0 -1e-006 -0 -90 -0 -0.262125 -24.7527 50.4635 89.996 -0.701099 89.3352 0 0 0 -90 -3.50835e-015 -90 -6.46539 -3.85818 0.440696 -179.817 -0.0125192 -3.89924 10.3859 -0.007869 4.00208e-010 17.2324 -9.20916e-006 -4.39034e-005 10.3894 -0.005504 5e-005 47.4741 0.000416845 0.000162426 10.3905 -0.003973 0.000149 60.1049 0.000792498 0.000213372 10.3902 -0.004386 4.7e-005 54.9509 0.00191085 0.000638292 9e-006 -1.5e-005 -8.75617 -97.1322 -11.8942 173.842 19.7638 5.32907e-015 -1e-006 -61.1157 0.000421516 0.00166034 18.6534 3e-006 8.52652e-014 -28.9736 1.19653 7.59912 5.09143 13.9567 3.97027e-006 115.926 3.13243 1.60785 4.288 -1e-006 1e-006 53.6716 8.4327 1.28952 3.85799 4.35207e-014 -1e-006 -45 -6.16866e-006 8.42373e-006 -1.5e-005 7e-006 8.75617 -110.554 -4.45086 -179.141 19.7638 3e-006 -4.26326e-014 -63.9007 0.000328792 0.00143606 18.6534 3e-006 -3.01981e-014 -26.7116 1.29201 -5.68357 5.09143 13.9567 -9.89459e-007 115.94 0.0161945 5.03111 4.288 -1e-006 4.44089e-014 51.474 -6.03006 0.263551 3.85799 1.47082e-012 -2e-006 -45 2.27823e-005 1.73448e-005 9.12711 -0.006381 -0.622026 0.37741 0.0267413 3.95389 8.04359 -0.006286 9.99996e-005 0.33221 0.000757929 0.0542309 8.04366 -0.006282 0.000103 0.332236 0.00214226 0.0555963 8.04298 -0.008216 1.4999e-005 -3.96575 0.000494439 0.0556819 10.6686 1.06826 0.000159792 -12.2875 0.000389484 0.00048716 -3.30106 -4.83996 -9.04791 -167.754 -85.4164 115.004 19.0492 -1.24345e-014 -3e-006 90.0203 9.99949 -103.594 10.3706 -1.98952e-013 1e-006 -57.1226 0.000502788 0.00162392 22.8631 -1e-006 -1.33227e-014 -16.7534 -0.132975 2.49011 6.48256 0.103655 0.504496 -78.3123 -0.299395 -15.4943 3.66843 1e-006 1e-006 34.6071 3.06418e-005 -2.26221e-006 -3.30085 -4.83981 9.04784 -167.756 85.4168 -115.001 19.0492 2.30926e-014 3e-006 88.6915 -9.9372 99.5 10.3706 5.32907e-015 3.10863e-015 -57.124 0.000143613 0.000469734 22.8631 -3e-006 -9.76997e-015 -16.608 -8.73896 -2.58518 6.48256 0.103653 -0.504496 -75.9442 0.95448 15.4679 3.66843 1e-006 -2e-006 40.107 1.95173e-005 -1.20212e-005 7.52401 -0.006366 7.00007e-005 -17.4659 0.000579347 0.00079155 8.47532 -0.006572 2.40002e-005 2.64038 0.000950458 0.000905951 8.41604 -1.06581e-014 -2.22045e-015 -68.1008 0.214918 0.030709 -7e-006 7e-006 -4e-006 -23.1098 1.37701e-015 90 -2.31278e-007 -0.500004 1.14579e-007 -35.6801 90 125.68 0 0 0 -113.549 1.52588e-005 -180 2.8863 13.9448 3.88993 -22.9892 1.37022e-015 90 0 0 0 -85.3358 -1.52588e-005 -180 0 0 0 -117.976 5.06796e-006 -2.98794e-005 0 0 0 131.09 0.189372 -0.509938 0 0 0 -0.16845 5.57366e-008 -1.48561e-008 0 0 0 -22.6319 -1.85074e-005 -1.96592e-006 0 0 0 -26.1943 1.03332e-005 6.08802e-006 15.5776 -0.000396 -6.99993e-006 -0 -9.93923e-017 -0 9.40327 1.03976 -6.5174 -19.0897 17.2341 20.306 2.77015 -0.006393 4.99917e-006 2.43777 0.00170204 0.00091944 9.40361 1.03978 6.5176 -19.0899 -17.2308 -20.3041 2.77019 -0.006393 8.00065e-006 2.43812 0.000821331 0.00125469 
0 0 -1e-006 -0 -90 -0 -0.262125 -24.7595 50.4635 89.9983 -0.102689 88.0704 0 0 0 -90 -3.50835e-015 -90 -6.46539 -3.85818 0.440696 179.699 0.020436 -3.89921 10.3859 -0.007869 5.87337e-010 16.7478 -9.65098e-006 -4.36625e-005 10.3894 -0.005504 5e-005 47.0072 0.00041331 0.000164085 10.3905 -0.003973 0.000149 59.6376 0.000788292 0.000218436 10.3902 -0.004386 4.7e-005 52.8771 0.00187922 0.000700737 9e-006 -1.5e-005 -8.75617 -96.775 -11.8133 173.724 19.7638 7.10543e-015 -1e-006 -61.3448 0.000415029 0.00166206 18.6534 3e-006 6.39489e-014 -30.4538 0.992706 7.64445 5.09143 13.9567 3.54463e-006 117.033 3.16288 1.54705 4.288 -1e-006 1e-006 53.6716 8.4327 1.28952 3.85799 8.03801e-014 -1e-006 -45 -5.24317e-006 9.34181e-006 -1.5e-005 7e-006 8.75617 -110.16 -4.46913 -179.072 19.7638 3e-006 -3.19744e-014 -64.1979 0.000321363 0.00143773 18.6534 3e-006 -3.19744e-014 -27.9241 1.43655 -5.64773 5.09143 13.9567 -1.0078e-006 116.88 0.0332996 5.06345 4.288 -1e-006 4.79616e-014 51.474 -6.03006 0.263551 3.85799 1.39444e-012 -2e-006 -45 2.0856e-005 1.53799e-005 9.12711 -0.006381 -0.622026 0.708403 0.0496151 3.95379 8.04359 -0.006286 9.99991e-005 0.663966 0.00107033 0.0542265 8.04366 -0.006282 0.000102999 0.664429 0.0024622 0.0555857 8.04298 -0.008216 1.49978e-005 -3.63397 0.000819951 0.0556724 10.6686 1.06826 0.000159904 -12.2179 0.000395433 0.000487989 -3.307 -4.83594 -9.04791 -167.827 -85.4167 115.002 19.0492 -1.06581e-014 -3e-006 90.2888 11.6452 -103.558 10.3706 -1.59872e-013 1e-006 -55.706 0.000542388 0.00161031 22.8631 -1e-006 -1.06581e-014 -16.886 -0.093501 2.52927 6.48256 0.103655 0.504496 -78.3144 -0.298764 -15.4948 3.66843 1e-006 1e-006 34.6071 3.06903e-005 -2.23463e-006 -3.30675 -4.83584 9.04784 -167.826 85.4167 -115.002 19.0492 2.66454e-014 3e-006 88.7336 -11.6188 99.2873 10.3706 -1.42109e-014 1.77636e-015 -55.7093 0.000155371 0.000466341 22.8631 -3e-006 8.88179e-015 -16.759 -8.91978 -2.71706 6.48256 0.103653 -0.504496 -75.947 0.953722 15.468 3.66843 1e-006 -2e-006 40.107 1.99686e-005 -1.25506e-005 7.52401 -0.006366 7.00006e-005 -17.3967 0.000580766 0.000791012 8.47532 -0.006572 2.40002e-005 2.70903 0.000951528 0.000904813 8.41604 -2.13163e-014 -2.66454e-015 -69.6323 0.214448 0.0332769 -7e-006 7e-006 -4e-006 -23.1098 1.37701e-015 90 -2.31279e-007 -0.500004 1.11793e-007 -36.5123 90 126.512 0 0 0 -113.549 1.52588e-005 -180 2.8863 13.9448 3.88993 -22.9892 1.37022e-015 90 0 0 0 -85.3358 -1.52588e-005 -180 0 0 0 -115.662 2.29248e-006 -2.65689e-005 0 0 0 128.443 0.378716 -1.0199 0 0 0 -0.16845 4.25655e-008 -1.28862e-008 0 0 0 -22.6319 -2.27317e-005 -1.70301e-006 0 0 0 -26.1943 1.44406e-005 8.23105e-006 15.5776 -0.000396 -6.99995e-006 1.59028e-015 4.96962e-017 7.95139e-016 9.40327 1.03976 -6.5174 -19.0942 17.2204 20.3105 2.77015 -0.006393 4.99912e-006 2.44031 0.00167053 0.000178153 9.40361 1.03978 6.5176 -19.0944 -17.2174 -20.3082 2.77019 -0.006393 8.0007e-006 2.44055 0.000842099 0.00174115 
0 0 -1e-006 -0 -90 -0 -0.262125 -24.77 50.4635 90.0001 -0.000129682 87.567 0 0 0 -90 -3.50835e-015 -90 -6.46539 -3.85818 0.440696 179.304 0.0473752 -3.89897 10.3859 -0.007869 5.05783e-010 16.3516 -9.23317e-006 -4.37277e-005 10.3894 -0.005504 5e-005 46.7618 0.000413769 0.000167107 10.3905 -0.003973 0.000149 59.3921 0.000788558 0.000222553 10.3902 -0.004386 4.7e-005 50.3432 0.00183508 0.000773075 9e-006 -1.5e-005 -8.75617 -96.61 -11.7694 173.658 19.7638 3.55271e-015 -1e-006 -61.4576 0.000411807 0.0016629 18.6534 3e-006 6.39489e-014 -31.2697 0.882417 7.66375 5.09143 13.9567 3.33118e-006 117.63 3.17881 1.51403 4.288 -1e-006 1e-006 53.6716 8.4327 1.28952 3.85799 7.72715e-014 -1e-006 -45 -4.79977e-006 9.74992e-006 -1.5e-005 7e-006 8.75617 -109.974 -4.47877 -179.037 19.7638 3e-006 -4.26326e-014 -64.3445 0.000317692 0.00143854 18.6534 3e-006 -3.01981e-014 -28.5984 1.51335 -5.62624 5.09143 13.9567 -1.03097e-006 117.387 0.0431545 5.0811 4.288 -1e-006 4.61853e-014 51.474 -6.03006 0.263551 3.85799 1.37579e-012 -2e-006 -45 2.06034e-005 1.51299e-005 9.12711 -0.006381 -0.622026 0.879815 0.0614611 3.95365 8.04359 -0.006286 9.99989e-005 0.835922 0.00123208 0.0542273 8.04366 -0.006282 0.000102999 0.836194 0.00262752 0.0555802 8.04298 -0.008216 1.49972e-005 -3.46222 0.000987728 0.055674 10.6686 1.06826 0.000159957 -12.1189 0.000398748 0.000488605 -3.31535 -4.83023 -9.04791 -167.926 -85.4166 115 19.0492 -1.77636e-014 -3e-006 90.4514 12.4919 -103.609 10.3706 -1.42109e-013 1e-006 -54.9718 0.000562828 0.00160298 22.8631 -1e-006 -1.42109e-014 -16.9473 -0.0781607 2.54346 6.48256 0.103655 0.504496 -78.3077 -0.300884 -15.4949 3.66843 1e-006 1e-006 34.6071 3.06008e-005 -2.21111e-006 -3.31511 -4.83013 9.04784 -167.926 85.4167 -114.999 19.0492 2.30926e-014 3e-006 88.7031 -12.4994 99.1819 10.3706 -7.10543e-015 -8.88179e-015 -54.9765 0.000161417 0.000464441 22.8631 -3e-006 4.44089e-015 -16.8348 -9.07748 -2.82436 6.48256 0.103653 -0.504496 -75.9414 0.955273 15.4679 3.66843 1e-006 -2e-006 40.107 2.0191e-005 -1.28184e-005 7.52401 -0.006366 7.00006e-005 -17.2965 0.000582304 0.00079004 8.47532 -0.006572 2.40002e-005 2.80971 0.000953125 0.000903144 8.41604 0 -8.88179e-016 -70.6278 0.214073 0.0339622 -7e-006 7e-006 -4e-006 -23.1098 1.37701e-015 90 -2.31279e-007 -0.500004 1.10694e-007 -36.8495 90 126.85 0 0 0 -113.549 1.52588e-005 -180 2.8863 13.9448 3.88993 -22.9892 1.37022e-015 90 0 0 0 -85.3358 -1.52588e-005 -180 0 0 0 -113.349 8.81622e-007 -2.56624e-005 0 0 0 125.8 0.567973 -1.52989 0 0 0 -0.16845 3.82446e-008 -1.23509e-008 0 0 0 -22.6319 -2.39744e-005 -1.63129e-006 0 0 0 -26.1943 1.56143e-005 8.85554e-006 15.5776 -0.000396 -6.99996e-006 7.95139e-016 -4.96962e-017 -7.95139e-016 9.40327 1.03976 -6.5174 -19.0833 17.2523 20.3004 2.77015 -0.006393 4.9991e-006 2.43506 0.00170971 0.00109986 9.40361 1.03978 6.5176 -19.0835 -17.2494 -20.2976 2.77019 -0.006393 8.00072e-006 2.4349 0.000811516 0.00102621 
